<svg id="レイヤ_1" data-name="レイヤ− 1" xmlns="http://www.w3.org/2000/svg" viewBox="0 0 565.47 124.31"><polygon points="269.51 122.98 263.88 122.98 263.88 101.03 263.79 101.03 257.06 122.98 250.96 122.98 244.66 101.03 244.57 101.03 244.57 122.98 238.63 122.98 238.63 91.98 247.64 91.98 254.16 114.08 254.25 114.08 260.38 91.98 269.51 91.98 269.51 122.98"/><path d="M537.33,344.14c0,1.69.71,5.77,7.26,5.34,2.94-.36,6.1-1.09,6.1-4.31,0-2.37-2.06-3.56-5.27-4.32l-3.24-.72c-4.89-1.13-10.49-2.67-10.49-9.36,0-3.38,2.62-9.64,12.44-9.64,9.27,0,11.71,6,11.75,9.68h-5.75c-.17-1.35-1.15-4.62-6.36-4.62-3.24,0-5.74,1.33-5.74,4.19,0,2.37,2.23,3,3.5,3.32l7.74,1.67c3.29.71,8,3.29,8,8.75,0,9.14-10.34,10.52-13,10.52-10.47,0-13-7.1-13-10.5Z" transform="translate(-135.51 -230.41)"/><path d="M322.05,320.84c-9.75,0-14.88,8-14.88,16.82s5.65,16.83,14.88,16.83c8.62,0,15-6.4,15-16.83C337.08,328.8,331.69,320.84,322.05,320.84Zm.14,28.47c-4.82.09-8.87-5.56-8.87-11.59S316.64,326,322.19,326c4.82,0,8.56,5.71,8.56,11.74S327.74,349.21,322.19,349.31Z" transform="translate(-135.51 -230.41)"/><polygon points="295.67 96.96 279.19 96.96 279.19 103.88 293.47 103.88 293.47 109.13 279.12 109.13 279.12 117.78 295.77 117.78 295.77 122.95 272.92 122.95 272.92 91.9 295.67 91.9 295.67 96.96"/><polygon points="235.15 122.93 229.51 122.93 229.51 100.97 229.42 100.97 222.7 122.93 216.59 122.93 210.29 100.97 210.2 100.97 210.2 122.93 204.26 122.93 204.26 91.93 213.28 91.93 219.79 114.03 219.88 114.03 226.01 91.93 235.15 91.93 235.15 122.93"/><polygon points="150.3 109.34 150.3 122.94 143.88 122.94 143.88 92 150.3 92 150.3 103.91 162.57 103.91 162.57 92 168.99 92 168.99 122.94 162.57 122.94 162.57 109.34 150.3 109.34"/><path d="M468.62,322.13H454.55v31.13h6V342.31h7.66a9.29,9.29,0,0,0,9.74-9.46C478,325.8,473,322.13,468.62,322.13Zm-2,15h-6V327.08H466c4,0,5.87,2.33,5.87,5C471.82,333.42,471.46,337.14,466.66,337.14Z" transform="translate(-135.51 -230.41)"/><polygon points="351.65 117.63 366.95 117.63 366.95 122.93 345.36 122.93 345.36 91.72 351.65 91.72 351.65 117.63"/><path d="M528.62,343.73c0,8.1-5.61,11-12.64,11-2.83,0-7-.69-9.78-3.73-1.67-1.88-2.31-4.37-2.4-7.45V322.12H510v21c0,4.29,2.84,6.39,5.85,6.39,4.41,0,6.57-2.35,6.57-6.08V322.12h6.2Z" transform="translate(-135.51 -230.41)"/><path d="M162.19,244c-.63-2.22-2.3-6.54-8.82-6.54-3.79,0-10.34,2.89-10.34,13.36,0,6.65,3.81,14,10.49,14,4.37,0,7.95-2.32,8.89-6.86l7.84,0c-1.57,8-7.17,13.07-16.64,13.07-10.05,0-18.1-7.53-18.1-20.31,0-12.94,8.47-19.59,18.2-19.48,11.31.13,15.29,7.3,15.71,12.77Z" transform="translate(-135.51 -230.41)"/><polygon points="113.79 38.97 106.54 38.97 106.54 14.79 106.43 14.79 98.85 38.97 91.22 38.97 83.89 15.22 83.78 15.22 83.78 38.97 76.41 38.97 76.41 1.56 87.51 1.56 95.04 27.52 95.15 27.52 103.08 1.56 113.79 1.56 113.79 38.97"/><polygon points="187.62 8.2 168.12 8.2 168.12 15.79 184.93 15.79 184.93 22.61 168.12 22.61 168.12 32.25 187.74 32.25 187.74 38.97 159.81 38.97 159.81 1.39 187.62 1.39 187.62 8.2"/><path d="M190.63,230.78c-11,0-18,9.18-18,20s7.62,20.15,18,20.15,18-7.4,18-20.15C208.65,240,200.65,230.78,190.63,230.78Zm.17,33.83c-5.89.11-10.67-6.39-10.67-13.76s3.89-13.61,10.67-13.61c5.89,0,10.14,6.24,10.14,13.61S197.59,264.48,190.8,264.61Z" transform="translate(-135.51 -230.41)"/><polygon points="155.54 38.92 148.3 38.92 148.3 14.74 148.19 14.74 140.61 38.92 132.97 38.92 125.64 15.17 125.54 15.17 125.54 38.92 118.17 38.92 118.17 1.51 129.27 1.51 136.8 27.47 136.9 27.47 144.83 1.51 155.54 1.51 155.54 38.92"/><path d="M420.59,249.16c-.32-1.69-1.63-3.49-5-3.49-4.58,0-4.77,1.83-4.77,3,0,5,17.5.16,17.5,11.23,0,7.75-7.79,9.69-12,9.69-6.17,0-12.22-3.16-12.43-10.25h6.44c0,2.24,1.32,4.68,6.2,4.68,3.67,0,4.24-2.35,4.53-3.31,1-5.28-17-.6-17-10.61,0-4.47,2.65-9.45,11.11-9.45,4.6,0,11,1,11.57,8.53Z" transform="translate(-135.51 -230.41)"/><path d="M394,260.33a6.14,6.14,0,0,1-5.26,3.62c-6.12,0-6.81-4.38-7-6.34h19.4l.12-1.63c0-12.54-9.61-15.08-13.29-15.11-10.91,0-13.7,10.41-13.69,13.54,0,9.78,6.64,15.69,14.77,15.69,4.93,0,11.7-4.28,12.5-9.77Zm-6-13.58c2.44,0,5.41,1.27,5.85,5.48H382.09C382.52,248.81,384.42,246.75,388,246.75Z" transform="translate(-135.51 -230.41)"/><path d="M364.8,232.16v12.06h-.1c-1.12-1.7-5.46-3.17-7.72-3.13-6.22,0-11.77,5.13-11.9,13.54C345,261.92,348.94,270,357,270c3,0,4.82-.44,7.85-3.3h.1v2.46h7v-37Zm-5.93,32c-4.46,0-6.58-4.06-6.58-8.58s2.25-8.39,6.58-8.39c3.94,0,6.26,3.87,6.26,8.39S362.43,264.12,358.87,264.12Z" transform="translate(-135.51 -230.41)"/><path d="M467.94,249.5h15.62v19.93h-6.07V266c-3,2.17-6,4.87-11.53,4.7-8.81-.27-17-7.17-17-20.1,0-10.06,5.7-20.1,18-20.05,10.57,0,15.65,7.88,16.06,13h-6.88c-.63-3.19-3.37-6.44-8.78-6.44s-10.86,4.36-10.86,13.81c0,10.06,5.73,13.53,10.93,13.53a10,10,0,0,0,9.49-9h-9.05Z" transform="translate(-135.51 -230.41)"/><path d="M507.68,232h-8.2L486.2,269.61H494l2.68-8.38h13.6l2.66,8.38h7.78Zm-9.21,23.66,5-14.93.11-.53,4.94,15.35Z" transform="translate(-135.51 -230.41)"/><path d="M552.48,260.78c.16-7.14-2.43-8.14-5.44-9.44,3.27-.64,7-4.37,7-8s-1.61-11.07-11.35-11.07h-18.5v37.09h7.49V254.25h7.91c4,.61,6.06,2.57,6.06,7.47,0,4.59.81,7.34,1.57,7.5H554S552.35,266.35,552.48,260.78Zm-11.54-12.32h-9V238.23h9.54a4.87,4.87,0,0,1,5.1,5.08C546.6,246.85,543.38,248.46,540.94,248.46Z" transform="translate(-135.51 -230.41)"/><polygon points="522.97 1.26 530.59 1.26 530.59 38.64 522.86 38.64 507.27 14.26 507.15 14.26 507.15 38.64 499.18 38.64 499.18 1.26 507.78 1.26 522.86 25.58 522.97 25.58 522.97 1.26"/><path d="M676.75,258.15c0,2.06,1,6.74,8.9,6.22,3.56-.43,7.32-1.67,7.32-5.57,0-2.16-2.56-3.69-6.45-4.62l-3.94-.86c-6.51-1.24-12.74-3.18-12.74-11.3,0-4.11,3.33-11.61,15.25-11.61,11.26,0,14.21,7.43,14.26,11.94h-7c-.21-1.64-1.4-5.61-7.72-5.61-3.93,0-7,1.33-7,4.8,0,2.88,2.72,3.81,4.25,4.18l9.4,2c4,.85,9.65,3.77,9.65,9.68,0,11.82-12.25,13.35-15.48,13.35-12.69,0-16.11-7.93-16.11-12.63Z" transform="translate(-135.51 -230.41)"/><polygon points="431.51 47.61 437.24 49.07 437.37 43.28 441.78 43.26 441.88 49.07 447.5 47.61 448.92 51.59 443.36 53.48 446.86 58.49 443.31 60.63 439.56 56.2 436.16 61.03 432.54 58.28 435.74 53.48 430.22 51.57 431.51 47.61"/><path d="M612.47,230.56c-11,0-18.45,9.61-18.45,20.44,0,11.41,8.05,20,18.45,20s18.31-7.55,18.31-20.3C630.78,239.88,623.07,230.56,612.47,230.56Zm.17,34.12c-5.89.12-11-6.53-11-13.9s4.17-13.76,11-13.76c5.89,0,10.43,6.39,10.43,13.76S619.43,264.55,612.64,264.68Z" transform="translate(-135.51 -230.41)"/><path d="M583.6,243.82c-.63-2.22-2.73-6.54-9.25-6.54-3.79,0-10.35,2.89-10.35,13.35,0,6.65,3.82,13.95,10.5,13.95,4.36,0,8.09-2.14,9-6.67l7.84-.15c-1.57,8-7.32,13.22-16.79,13.22-10,0-18.09-7.67-18.09-20.46,0-12.94,8.76-19.88,18.49-19.77,11.3.13,15.71,7.6,16.13,13.07Z" transform="translate(-135.51 -230.41)"/></svg>