<svg id="レイヤー_1" data-name="レイヤー 1" xmlns="http://www.w3.org/2000/svg" viewBox="0 0 415.62 105.83"><defs><style>.cls-1{fill:#1d1d1b;}</style></defs><path class="cls-1" d="M21.83,24.84c0,6.13-3.61,10.52-10.46,10.52C0,35.36,0,28.35,0,21.83H6.66c0,5.38.37,7.86,4.19,7.86s3.71-2.24,3.71-4.85V-.29h7.27Z"/><path class="cls-1" d="M55.42,22.89c0,9-5.7,12.84-14.32,12.84-3.14,0-7.8-.77-10.83-4.14-1.86-2.09-2.58-4.86-2.68-8.27V0h7.29V22.83c0,4.76,2.75,6.85,6.08,6.85,4.9,0,7.17-2.37,7.17-6.51V0h7.29Z"/><polygon class="cls-1" points="82.63 0.01 89.3 0.01 89.3 34.29 81.62 34.29 68.09 9.81 67.99 9.81 67.99 34.29 61.46 34.29 61.46 0.01 69.39 0.01 82.53 23.78 82.63 23.78 82.63 0.01"/><polygon class="cls-1" points="109.92 34.29 102.8 34.29 102.8 21.26 92.04 0.01 100.45 0.01 106.51 14.84 113.55 0.01 121.05 0.01 109.92 21.35 109.92 34.29"/><path class="cls-1" d="M136-.12h-7.55L116,34.29h7.52l2.37-7.3h12.61l2.18,7.3h7.06ZM127.4,22.11,132.22,7h.09l4.52,15.09Z"/><path class="cls-1" d="M343-.12H335.5L323.06,34.29h7.51L333,27h12.61l2.17,7.3h7.07Zm-8.63,22.23L339.23,7h.09l4.53,15.09Z"/><path class="cls-1" d="M276.92-.12h-7.54L257,34.29h7.51l2.37-7.3h12.6l2.19,7.3h7.06ZM268.3,22.11,273.11,7h.1l4.53,15.09Z"/><polygon class="cls-1" points="313.07 0.01 319.74 0.01 319.74 34.29 312.06 34.29 298.53 9.81 298.44 9.81 298.44 34.29 291.9 34.29 291.9 0.01 299.83 0.01 312.98 23.78 313.07 23.78 313.07 0.01"/><path class="cls-1" d="M165.21.29h7.21C176.8,19,177.63,21.07,178.25,25h.1c.61-3.57,1.68-6.76,5.3-24.69h7.15c4,18.73,4,20.26,4.82,24.69h.09c.56-3.24,2-5.92,6.42-24.69h7.23L199,34.29h-6.84c-3.53-16.75-3.71-18.88-4.85-25.46h-.09c-1.05,6.58-2.06,7.87-5.73,25.46h-6.64Z"/><path class="cls-1" d="M225.68.15h-7.82l-12.3,34.14h7.38l2.37-7h12.61l2.18,7h7.47Zm-8.6,21.75,4.65-15.07h.08l4.68,15.07Z"/><polygon class="cls-1" points="251.03 34.29 243.9 34.29 243.9 6.19 233.43 6.19 233.43 0.15 261.48 0.15 261.48 6.19 251.03 6.19 251.03 34.29"/><path class="cls-1" d="M378.33,16.17c1.42-.71,5.35-2.37,5.35-7.27,0-3.52-2.14-8.75-10.51-8.75H358.32V34.29H371c7,0,9.27-.75,11.23-2.66,1.8-1.76,2.51-4.76,2.51-7.47C384.77,20.78,382.5,17.75,378.33,16.17ZM365.17,5.37h6.42c3.23,0,5.23,1.53,5.23,4.33s-2.23,4.36-5,4.36h-6.61Zm7,23.57h-7V19.39h7.32c2.57,0,5.15,1.58,5.15,4C377.64,26.87,375.64,28.94,372.17,28.94Z"/><polygon class="cls-1" points="415.36 6.05 396.69 6.05 396.69 13.23 412.92 13.23 412.92 19.27 396.69 19.27 396.69 28.53 415.62 28.53 415.62 34.29 389.7 34.29 389.7 0.01 415.36 0.01 415.36 6.05"/><polygon class="cls-1" points="117.03 46.09 135.52 46.09 149.49 87.17 149.66 87.17 162.88 46.09 181.37 46.09 181.37 105.83 169.07 105.83 169.07 63.49 168.91 63.49 154.26 105.83 144.14 105.83 129.5 63.91 129.32 63.91 129.32 105.83 117.03 105.83 117.03 46.09"/><path class="cls-1" d="M221.34,46.09H207.87l-22.68,59.74H198.5l4.68-13.3h22.35l4.51,13.3h13.64ZM206.62,82.73l7.78-21.92h.16l7.53,21.92Z"/><polygon class="cls-1" points="248.14 46.09 261.19 46.09 286.13 86.16 286.3 86.16 286.3 46.09 298.6 46.09 298.59 105.83 285.46 105.83 260.61 65.83 260.44 65.83 260.44 105.83 248.14 105.83 248.14 46.09"/></svg>